<?xml version="1.0" encoding="iso-8859-1"?>
<!-- Uploaded to: SVG Repo, www.svgrepo.com, Generator: SVG Repo Mixer Tools -->
<svg fill="#FFFFFF" height="800px" width="800px" version="1.1" id="Capa_1" xmlns="http://www.w3.org/2000/svg" xmlns:xlink="http://www.w3.org/1999/xlink" 
	 viewBox="0 0 612 612" xml:space="preserve">
<g>
	<g>
		<path d="M545.325,500.685H66.675c-30.737,0-55.657,24.92-55.657,55.657c0,30.737,24.92,55.657,55.657,55.657h478.65
			c30.737,0,55.657-24.92,55.657-55.657C600.982,525.604,576.062,500.685,545.325,500.685z"/>
		<path d="M129.753,464.922c30.737,0,55.657-24.92,55.657-55.657v-212.61c0-30.737-24.92-55.657-55.657-55.657
			s-55.657,24.92-55.657,55.657v212.61C74.095,440.002,99.016,464.922,129.753,464.922z"/>
		<path d="M306.002,464.922c30.737,0,55.657-24.92,55.657-55.657V126.157c0-30.737-24.92-55.657-55.657-55.657
			s-55.657,24.92-55.657,55.657v283.108C250.345,440.002,275.263,464.922,306.002,464.922z"/>
		<path d="M482.245,464.922c30.737,0,55.655-24.92,55.655-55.657V55.657C537.903,24.92,512.984,0,482.245,0
			c-30.737,0-55.657,24.92-55.657,55.657v353.607C426.588,440.002,451.508,464.922,482.245,464.922z"/>
	</g>
</g>
</svg>